<?xml version="1.0" encoding="UTF-8"?> <svg xmlns="http://www.w3.org/2000/svg" width="251.577" height="235.278" viewBox="0 0 251.577 235.278"><defs><style> .cls-1 { opacity: 0.299; } .cls-2 { fill: #e6ebed; } .cls-3 { fill: #d7d3c4; } .cls-11, .cls-4, .cls-7, .cls-8 { fill: none; stroke: #333f48; opacity: 0.2; } .cls-4, .cls-7, .cls-8, .cls-9 { stroke-miterlimit: 10; } .cls-10, .cls-5, .cls-6 { fill: #333f48; } .cls-5 { opacity: 0.5; } .cls-6 { opacity: 0.9; } .cls-7, .cls-8 { stroke-linecap: round; } .cls-7 { stroke-width: 0.85px; } .cls-9 { fill: #e9e6dd; stroke: #bf5700; stroke-width: 2px; } .cls-11 { stroke-linejoin: round; } .cls-12 { fill: #bf5700; } </style></defs><g id="Illustration_UT_Tower_-_limestone" data-name="Illustration_UT Tower - limestone" transform="translate(-51.299 -57.876)"><g id="Artwork" transform="translate(51.299 57.876)"><g id="Group_2804" data-name="Group 2804" class="cls-1" transform="translate(37.688 49.583)"><path id="Path_2163" data-name="Path 2163" class="cls-2" d="M209.3,193.676c0,3.145,7.663,5.719,17.1,5.719s17.1-2.574,17.1-5.719-7.663-5.776-17.1-5.776S209.3,190.474,209.3,193.676Z" transform="translate(-178.589 -187.9)"></path><path id="Path_2164" data-name="Path 2164" class="cls-2" d="M284.7,216.032c0,2.345,5.662,4.232,12.639,4.232s12.639-1.887,12.639-4.232-5.662-4.232-12.639-4.232S284.7,213.687,284.7,216.032Z" transform="translate(-210.868 -198.132)"></path><path id="Path_2165" data-name="Path 2165" class="cls-2" d="M241.7,198.746c0,2,6.977,3.6,15.67,3.6s15.613-1.6,15.613-3.6-6.977-3.546-15.613-3.546S241.7,196.8,241.7,198.746Z" transform="translate(-192.46 -191.025)"></path><path id="Path_2166" data-name="Path 2166" class="cls-2" d="M185.6,195.3c0,2.173,7.091,4,15.9,4s15.9-1.83,15.9-4-7.091-4-15.9-4S185.6,193.073,185.6,195.3Z" transform="translate(-168.443 -189.356)"></path><ellipse id="Ellipse_97" data-name="Ellipse 97" class="cls-2" cx="24.935" cy="8.35" rx="24.935" ry="8.35" transform="translate(15.727 3.145)"></ellipse><path id="Path_2167" data-name="Path 2167" class="cls-2" d="M234.5,208.905c0,3.546,11.152,6.462,24.935,6.462s24.992-2.917,24.992-6.462-11.209-6.405-24.992-6.405S234.5,205.359,234.5,208.905Z" transform="translate(-189.377 -194.15)"></path><path id="Path_2168" data-name="Path 2168" class="cls-2" d="M155.6,227.577c0,3.717,11.209,6.634,24.992,6.634s24.935-2.917,24.935-6.634S194.375,221,180.592,221,155.6,223.917,155.6,227.577Z" transform="translate(-155.6 -202.07)"></path><path id="Path_2169" data-name="Path 2169" class="cls-2" d="M226.7,225.877c0,3.6,11.152,6.577,24.935,6.577s24.992-2.974,24.992-6.577-11.209-6.577-24.992-6.577S226.7,222.217,226.7,225.877Z" transform="translate(-186.038 -201.342)"></path><path id="Path_2170" data-name="Path 2170" class="cls-2" d="M282.2,223.69c0,3.088,9.322,5.547,20.874,5.547s20.817-2.459,20.817-5.547-9.322-5.49-20.817-5.49S282.2,220.659,282.2,223.69Z" transform="translate(-209.798 -200.872)"></path></g><g id="Group_2805" data-name="Group 2805" class="cls-1" transform="translate(0 37.459)"><path id="Path_2171" data-name="Path 2171" class="cls-2" d="M128.2,169.9c0,1.773,6.863,3.2,15.327,3.2s15.327-1.43,15.327-3.2-6.863-3.2-15.327-3.2S128.2,168.13,128.2,169.9Z" transform="translate(-106.182 -166.7)"></path><path id="Path_2172" data-name="Path 2172" class="cls-2" d="M118.1,177.389c0,2.345,5.662,4.232,12.639,4.232s12.7-1.887,12.7-4.232-5.662-4.289-12.7-4.289S118.1,175.044,118.1,177.389Z" transform="translate(-101.858 -169.44)"></path><path id="Path_2173" data-name="Path 2173" class="cls-2" d="M89.7,182.432c0,2.345,5.662,4.232,12.639,4.232s12.639-1.887,12.639-4.232-5.662-4.232-12.639-4.232S89.7,180.087,89.7,182.432Z" transform="translate(-89.7 -171.623)"></path><path id="Path_2174" data-name="Path 2174" class="cls-2" d="M140.2,182.807c0,4.575,11.152,8.35,24.935,8.35s24.992-3.775,24.992-8.35-11.209-8.407-24.992-8.407S140.2,178.175,140.2,182.807Z" transform="translate(-111.319 -169.996)"></path><path id="Path_2175" data-name="Path 2175" class="cls-2" d="M90.3,187.662c0,3.145,11.209,5.662,24.935,5.662s24.992-2.516,24.992-5.662S129.075,182,115.235,182,90.3,184.516,90.3,187.662Z" transform="translate(-89.957 -173.25)"></path></g><g id="Group_2806" data-name="Group 2806" class="cls-1" transform="translate(86.814 43.007)"><path id="Path_2176" data-name="Path 2176" class="cls-2" d="M361.757,216.419c0-3.2-7.663-5.719-17.157-5.719s-17.1,2.516-17.1,5.719,7.663,5.719,17.1,5.719S361.757,219.564,361.757,216.419Z" transform="translate(-278.317 -191.084)"></path><path id="Path_2177" data-name="Path 2177" class="cls-2" d="M420.054,210.4c0-1.773-6.863-3.2-15.327-3.2s-15.327,1.43-15.327,3.2,6.863,3.26,15.327,3.26S420.054,212.175,420.054,210.4Z" transform="translate(-304.817 -189.586)"></path><path id="Path_2178" data-name="Path 2178" class="cls-2" d="M462.535,196.332c0-2.345-5.662-4.232-12.639-4.232s-12.7,1.887-12.7,4.232,5.662,4.232,12.7,4.232S462.535,198.677,462.535,196.332Z" transform="translate(-325.28 -183.121)"></path><path id="Path_2179" data-name="Path 2179" class="cls-2" d="M292.978,196.332c0-2.345-5.662-4.232-12.639-4.232s-12.639,1.887-12.639,4.232,5.662,4.232,12.639,4.232S292.978,198.677,292.978,196.332Z" transform="translate(-252.716 -183.121)"></path><path id="Path_2180" data-name="Path 2180" class="cls-2" d="M331.54,214.546c0-1.944-7.034-3.546-15.67-3.546s-15.67,1.6-15.67,3.546,6.977,3.6,15.67,3.6S331.54,216.547,331.54,214.546Z" transform="translate(-266.63 -191.212)"></path><path id="Path_2181" data-name="Path 2181" class="cls-2" d="M387.255,217.4c0-2.23-7.149-4-15.956-4s-15.9,1.773-15.9,4,7.149,4,15.9,4S387.255,219.576,387.255,217.4Z" transform="translate(-290.261 -192.24)"></path><ellipse id="Ellipse_98" data-name="Ellipse 98" class="cls-2" cx="24.935" cy="8.35" rx="24.935" ry="8.35" transform="translate(48.497 11.266)"></ellipse><path id="Path_2182" data-name="Path 2182" class="cls-2" d="M324.769,200.105c0-3.546-11.152-6.405-24.935-6.405s-24.935,2.859-24.935,6.405,11.152,6.405,24.935,6.405S324.769,203.651,324.769,200.105Z" transform="translate(-255.799 -183.806)"></path><path id="Path_2183" data-name="Path 2183" class="cls-2" d="M332.526,182.977c0-3.66-11.152-6.577-24.935-6.577s-24.992,2.917-24.992,6.577,11.209,6.577,24.992,6.577S332.526,186.58,332.526,182.977Z" transform="translate(-259.095 -176.4)"></path><path id="Path_2184" data-name="Path 2184" class="cls-2" d="M283.191,186.69c0-3.031-9.322-5.49-20.817-5.49s-20.874,2.459-20.874,5.49,9.322,5.49,20.874,5.49S283.191,189.721,283.191,186.69Z" transform="translate(-241.5 -178.455)"></path></g><g id="Group_2807" data-name="Group 2807" class="cls-1" transform="translate(173.17 42.32)"><path id="Path_2185" data-name="Path 2185" class="cls-2" d="M482.878,202.032c0-2.345-5.662-4.232-12.639-4.232s-12.639,1.887-12.639,4.232,5.662,4.232,12.639,4.232S482.878,204.377,482.878,202.032Z" transform="translate(-420.37 -184.875)"></path><path id="Path_2186" data-name="Path 2186" class="cls-2" d="M442.426,190.45c0-4.632-11.209-8.35-24.992-8.35s-24.935,3.717-24.935,8.35,11.152,8.35,24.935,8.35S442.426,195.082,442.426,190.45Z" transform="translate(-392.5 -178.154)"></path><path id="Path_2187" data-name="Path 2187" class="cls-2" d="M452.426,181.834c0-3.66-11.209-6.634-24.992-6.634s-24.935,2.974-24.935,6.634,11.152,6.634,24.935,6.634S452.426,185.494,452.426,181.834Z" transform="translate(-396.781 -175.2)"></path><path id="Path_2188" data-name="Path 2188" class="cls-2" d="M492.269,189.619c0-3.145-11.152-5.719-24.935-5.719s-24.935,2.574-24.935,5.719,11.152,5.662,24.935,5.662S492.269,192.707,492.269,189.619Z" transform="translate(-413.862 -178.924)"></path><path id="Path_2189" data-name="Path 2189" class="cls-2" d="M482.878,202.032c0-2.345-5.662-4.232-12.639-4.232s-12.639,1.887-12.639,4.232,5.662,4.232,12.639,4.232S482.878,204.377,482.878,202.032Z" transform="translate(-420.37 -184.875)"></path><path id="Path_2190" data-name="Path 2190" class="cls-2" d="M442.426,190.45c0-4.632-11.209-8.35-24.992-8.35s-24.935,3.717-24.935,8.35,11.152,8.35,24.935,8.35S442.426,195.082,442.426,190.45Z" transform="translate(-392.5 -178.154)"></path><path id="Path_2191" data-name="Path 2191" class="cls-2" d="M452.426,181.834c0-3.66-11.209-6.634-24.992-6.634s-24.935,2.974-24.935,6.634,11.152,6.634,24.935,6.634S452.426,185.494,452.426,181.834Z" transform="translate(-396.781 -175.2)"></path><path id="Path_2192" data-name="Path 2192" class="cls-2" d="M492.269,189.619c0-3.145-11.152-5.719-24.935-5.719s-24.935,2.574-24.935,5.719,11.152,5.662,24.935,5.662S492.269,192.707,492.269,189.619Z" transform="translate(-413.862 -178.924)"></path></g><g id="Group_2808" data-name="Group 2808" transform="translate(80.809)"><path id="Path_2193" data-name="Path 2193" class="cls-3" d="M316.784,192.131h-1.716v-14.3H301.343v-24.02H300.2v-2.288h-3.431v2.288h-1.144V156.1h-5.6V115.726h3.431l.172-7.606h-7.778V101.2H261.94c-.057,0,0,6.92,0,6.92h-7.778v7.606h2.688v40.49l-4.69-.114v-2.288h-1.144v-2.288h-3.431v2.288h-1.144v24.02H232.716v14.3H231v2.288h1.716V335.105h82.353V194.419h1.716Z" transform="translate(-231 -101.2)"></path><line id="Line_112" data-name="Line 112" class="cls-4" y1="140.4" transform="translate(70.629 93.848)"></line><line id="Line_113" data-name="Line 113" class="cls-4" y1="140.4" transform="translate(16.299 93.848)"></line><line id="Line_114" data-name="Line 114" class="cls-4" x2="82.353" transform="translate(1.716 93.562)"></line><line id="Line_115" data-name="Line 115" class="cls-4" x2="54.902" transform="translate(15.441 76.405)"></line><circle id="Ellipse_99" data-name="Ellipse 99" class="cls-5" cx="1.029" cy="1.029" r="1.029" transform="translate(41.863 85.27)"></circle><circle id="Ellipse_100" data-name="Ellipse 100" class="cls-5" cx="1.029" cy="1.029" r="1.029" transform="translate(60.85 85.27)"></circle><circle id="Ellipse_101" data-name="Ellipse 101" class="cls-5" cx="1.029" cy="1.029" r="1.029" transform="translate(22.304 85.27)"></circle><g id="Windows" transform="translate(19.444 96.708)"><rect id="Rectangle_1309" data-name="Rectangle 1309" class="cls-6" width="6.863" height="9.15"></rect><rect id="Rectangle_1310" data-name="Rectangle 1310" class="cls-6" width="6.863" height="6.291" transform="translate(0 12.582)"></rect><rect id="Rectangle_1311" data-name="Rectangle 1311" class="cls-6" width="6.863" height="6.291" transform="translate(0 22.304)"></rect><rect id="Rectangle_1312" data-name="Rectangle 1312" class="cls-6" width="6.863" height="6.291" transform="translate(0 32.026)"></rect><rect id="Rectangle_1313" data-name="Rectangle 1313" class="cls-6" width="6.863" height="6.291" transform="translate(0 41.748)"></rect><rect id="Rectangle_1314" data-name="Rectangle 1314" class="cls-6" width="6.863" height="6.291" transform="translate(0 51.471)"></rect><rect id="Rectangle_1315" data-name="Rectangle 1315" class="cls-6" width="6.863" height="6.291" transform="translate(0 61.193)"></rect><rect id="Rectangle_1316" data-name="Rectangle 1316" class="cls-6" width="6.863" height="6.291" transform="translate(0 70.915)"></rect><rect id="Rectangle_1317" data-name="Rectangle 1317" class="cls-6" width="6.863" height="6.291" transform="translate(0 80.637)"></rect><rect id="Rectangle_1318" data-name="Rectangle 1318" class="cls-6" width="6.863" height="6.291" transform="translate(0 90.359)"></rect><rect id="Rectangle_1319" data-name="Rectangle 1319" class="cls-6" width="6.863" height="6.291" transform="translate(0 100.082)"></rect><rect id="Rectangle_1320" data-name="Rectangle 1320" class="cls-6" width="6.863" height="6.291" transform="translate(0 109.804)"></rect><rect id="Rectangle_1321" data-name="Rectangle 1321" class="cls-6" width="6.863" height="6.291" transform="translate(0 119.526)"></rect><rect id="Rectangle_1322" data-name="Rectangle 1322" class="cls-6" width="6.863" height="9.15" transform="translate(20.016)"></rect><rect id="Rectangle_1323" data-name="Rectangle 1323" class="cls-6" width="6.863" height="6.291" transform="translate(20.016 12.582)"></rect><rect id="Rectangle_1324" data-name="Rectangle 1324" class="cls-6" width="6.863" height="6.291" transform="translate(20.016 22.304)"></rect><rect id="Rectangle_1325" data-name="Rectangle 1325" class="cls-6" width="6.863" height="6.291" transform="translate(20.016 32.026)"></rect><rect id="Rectangle_1326" data-name="Rectangle 1326" class="cls-6" width="6.863" height="6.291" transform="translate(20.016 41.748)"></rect><rect id="Rectangle_1327" data-name="Rectangle 1327" class="cls-6" width="6.863" height="6.291" transform="translate(20.016 51.471)"></rect><rect id="Rectangle_1328" data-name="Rectangle 1328" class="cls-6" width="6.863" height="6.291" transform="translate(20.016 61.193)"></rect><rect id="Rectangle_1329" data-name="Rectangle 1329" class="cls-6" width="6.863" height="6.291" transform="translate(20.016 70.915)"></rect><rect id="Rectangle_1330" data-name="Rectangle 1330" class="cls-6" width="6.863" height="6.291" transform="translate(20.016 80.637)"></rect><rect id="Rectangle_1331" data-name="Rectangle 1331" class="cls-6" width="6.863" height="6.291" transform="translate(20.016 90.359)"></rect><rect id="Rectangle_1332" data-name="Rectangle 1332" class="cls-6" width="6.863" height="6.291" transform="translate(20.016 100.082)"></rect><rect id="Rectangle_1333" data-name="Rectangle 1333" class="cls-6" width="6.863" height="6.291" transform="translate(20.016 109.804)"></rect><rect id="Rectangle_1334" data-name="Rectangle 1334" class="cls-6" width="6.863" height="6.291" transform="translate(20.016 119.526)"></rect><rect id="Rectangle_1335" data-name="Rectangle 1335" class="cls-6" width="6.863" height="9.15" transform="translate(39.461)"></rect><rect id="Rectangle_1336" data-name="Rectangle 1336" class="cls-6" width="6.863" height="6.291" transform="translate(39.461 12.582)"></rect><rect id="Rectangle_1337" data-name="Rectangle 1337" class="cls-6" width="6.863" height="6.291" transform="translate(39.461 22.304)"></rect><rect id="Rectangle_1338" data-name="Rectangle 1338" class="cls-6" width="6.863" height="6.291" transform="translate(39.461 32.026)"></rect><rect id="Rectangle_1339" data-name="Rectangle 1339" class="cls-6" width="6.863" height="6.291" transform="translate(39.461 41.748)"></rect><rect id="Rectangle_1340" data-name="Rectangle 1340" class="cls-6" width="6.863" height="6.291" transform="translate(39.461 51.471)"></rect><rect id="Rectangle_1341" data-name="Rectangle 1341" class="cls-6" width="6.863" height="6.291" transform="translate(39.461 61.193)"></rect><rect id="Rectangle_1342" data-name="Rectangle 1342" class="cls-6" width="6.863" height="6.291" transform="translate(39.461 70.915)"></rect><rect id="Rectangle_1343" data-name="Rectangle 1343" class="cls-6" width="6.863" height="6.291" transform="translate(39.461 80.637)"></rect><rect id="Rectangle_1344" data-name="Rectangle 1344" class="cls-6" width="6.863" height="6.291" transform="translate(39.461 90.359)"></rect><rect id="Rectangle_1345" data-name="Rectangle 1345" class="cls-6" width="6.863" height="6.291" transform="translate(39.461 100.082)"></rect><rect id="Rectangle_1346" data-name="Rectangle 1346" class="cls-6" width="6.863" height="6.291" transform="translate(39.461 109.804)"></rect><rect id="Rectangle_1347" data-name="Rectangle 1347" class="cls-6" width="6.863" height="6.291" transform="translate(39.461 119.526)"></rect><rect id="Rectangle_1348" data-name="Rectangle 1348" class="cls-6" width="6.863" height="6.291" transform="translate(0 129.248)"></rect><rect id="Rectangle_1349" data-name="Rectangle 1349" class="cls-6" width="6.863" height="6.291" transform="translate(20.016 129.248)"></rect><rect id="Rectangle_1350" data-name="Rectangle 1350" class="cls-6" width="6.863" height="6.291" transform="translate(39.461 129.248)"></rect></g><line id="Line_116" data-name="Line 116" class="cls-7" x1="4.804" transform="translate(40.376 46.895)"></line><line id="Line_117" data-name="Line 117" class="cls-8" x1="29.167" transform="translate(27.737 37.516)"></line><line id="Line_118" data-name="Line 118" class="cls-4" x1="23.905" transform="translate(30.94 6.92)"></line><line id="Line_119" data-name="Line 119" class="cls-8" x1="17.729" transform="translate(33.456 31.225)"></line><line id="Line_120" data-name="Line 120" class="cls-7" x1="40.433" transform="translate(22.533 63.366)"></line><circle id="Ellipse_102" data-name="Ellipse 102" class="cls-9" cx="10.294" cy="10.294" r="10.294" transform="translate(32.484 49.24)"></circle><path id="Path_2194" data-name="Path 2194" class="cls-10" d="M306.538,131.8h2.345v22.19h-2.345Zm-7.835-5.2h3.832v29.51l-3.832-3.431Zm-7.206,0h3.889v30.082H291.5Zm-7.149,0h3.832v26.078l-3.832,3.431ZM278,131.8h2.288v22.19H278Z" transform="translate(-251.121 -112.074)"></path><path id="Path_2195" data-name="Path 2195" class="cls-11" d="M325.552,186.726h-4.518v-8.578l-6.92-5.547H314v5.547h7.034" transform="translate(-266.533 -131.767)"></path><path id="Path_2196" data-name="Path 2196" class="cls-11" d="M276.2,186.783h4.289v-8.636l6.92-5.547h.114v5.547h-7.034" transform="translate(-250.35 -131.767)"></path></g><path id="Path_2197" data-name="Path 2197" class="cls-12" d="M324.208,510.888H159.5l-3.2-2.288H327.64Z" transform="translate(-118.212 -275.61)"></path></g></g></svg> 